# AST/ASF file generated using VICON BodyLanguage
# -----------------------------------------------
:version 1.10
:name VICON
:units
  mass 1.0
  length 0.45
  angle deg
:documentation
   .ast/.asf automatically generated from VICON data using
   VICON BodyBuilder and BodyLanguage model FoxedUp or BRILLIANT.MOD
:root
   order TX TY TZ RX RY RZ
   axis XYZ
   position 0 0 0  
   orientation 0 -0 0 
:bonedata
  begin
     id 1 
     name lhipjoint
     direction 0.432694 -0.693742 0.575759 
     length 2.19277 
     axis 0 -0 0  XYZ
  end
  begin
     id 2 
     name lfemur
     direction 0.34202 -0.939693 0  
     length 6.69022  
     axis 0 -0 20  XYZ
    dof rx ry rz
    limits (-160.0 20.0)
           (-70.0 70.0)
           (-60.0 70.0)
  end
  begin
     id 3 
     name ltibia
     direction 0.34202 -0.939693 0   
     length 6.50337   
     axis 0 -0 20   XYZ
    dof rx
    limits (-10.0 170.0)
  end
  begin
     id 4 
     name lfoot
     direction 0.158999 -0.435969 0.885805   
     length 2.70564   
     axis -90 -1.13533e-015 20   XYZ
    dof rx rz
    limits (-45.0 90.0)
           (-70.0 20.0)
  end
  begin
     id 5 
     name ltoes
     direction -0.00592919 0.00964381 0.999936   
     length 1.29929   
     axis -90 -1.13533e-015 20   XYZ
    dof rx
    limits (-90.0 20.0)
  end
  begin
     id 6 
     name rhipjoint
     direction -0.414359 -0.700339 0.581234   
     length 2.17212  
     axis 0 -0 0  XYZ 
  end
  begin
     id 7 
     name rfemur
     direction -0.34202 -0.939693 0   
     length 7.17659   
     axis 0 -0 -20   XYZ
    dof rx ry rz
    limits (-160.0 20.0)
           (-70.0 70.0)
           (-70.0 60.0)
  end
  begin
     id 8 
     name rtibia
     direction -0.34202 -0.939693 0   
     length 6.36669   
     axis 0 -0 -20   XYZ
    dof rx
    limits (-10.0 170.0)
 end
 begin
     id 9 
     name rfoot
     direction -0.137064 -0.37658 0.916188   
     length 2.22351  
     axis -90 1.13533e-015 -20   XYZ
    dof rx rz
    limits (-45.0 90.0)
           (-20.0 70.0)
  end
  begin
     id 10 
     name rtoes
     direction -0.000784077 -0.00289101 0.999996   
     length 1.09522   
     axis -90 1.13533e-015 -20   XYZ
    dof rx
    limits (-90.0 20.0)
  end
  begin
     id 11 
     name lowerback
     direction -0.0176242 0.984912 -0.172157   
     length 1.65301   
     axis 0 -0 0   XYZ
    dof rx ry rz
    limits (-20.0 45.0)
           (-30.0 30.0)
           (-30.0 30.0)
  end
  begin
     id 12 
     name upperback
     direction -0.00218128 0.998776 -0.0494072   
     length 1.67776   
     axis 0 -0 0   XYZ
    dof rx ry rz
    limits (-20.0 45.0)
           (-30.0 30.0)
           (-30.0 30.0)
  end
  begin
     id 13 
     name thorax
     direction 0.00544186 0.999658 0.0255711   
     length 1.72293   
     axis 0 -0 0   XYZ
    dof rx ry rz
    limits (-20.0 45.0)
           (-30.0 30.0)
           (-30.0 30.0)
  end
  begin
     id 14 
     name lowerneck
     direction -0.105325 0.983841 0.144785   
     length 2.14226   
     axis 0 -0 0   XYZ
    dof rx ry rz
    limits (-20.0 45.0)
           (-30.0 30.0)
           (-30.0 30.0)
  end
  begin
     id 15 
     name upperneck
     direction 0.0547957 0.988053 -0.144041   
     length 2.17508   
     axis 0 -0 0   XYZ
    dof rx ry rz
    limits (-20.0 45.0)
           (-30.0 30.0)
           (-30.0 30.0)
  end
  begin
     id 16
     name head
     direction 0.0247488 0.997534 -0.0656813  
     length 2.20048  
     axis 0 -0 0   XYZ
    dof rx ry rz
    limits (-20.0 45.0)
           (-30.0 30.0)
           (-30.0 30.0)
  end
  begin
     id 17 
     name lclavicle
     direction 0.820559 0.567247 -0.0701026  
     length 4.09615  
     axis 0 -0 0   XYZ
    dof ry rz
    limits (-20.0 10.0)
           (0.0 20.0)
  end
  begin
     id 18 
     name lhumerus
     direction 0.999977 -0.0067566 -9.96392e-005   
     length 4.59333   
     axis -180 -30 -90   XYZ
    dof rx ry rz
    limits (-60.0 90.0)
           (-90.0 90.0)
           (-90.0 90.0)
  end
  begin
     id 19
     name lradius
     direction 1 -4.48982e-011 -2.53425e-027   
     length 2.81151   
     axis -180 -30 -90   XYZ
    dof rx
    limits (-10.0 170.0)
  end
  begin
     id 20
     name lwrist
     direction 1 -4.48939e-011 -7.39254e-028   
     length 1.40576   
     axis 2.56395e-016 90 90   XYZ
    dof ry
    limits (-180.0 0.0)
 end
  begin
     id 21 
     name lhand
     direction 1 -4.48939e-011 -1.47851e-027   
     length 0.895651   
     axis 9.43423e-016 90 90   XYZ
    dof rx rz
    limits (-90.0 90.0)
           (-45.0 45.0)
  end
  begin
     id 22 
     name lfingers
     direction 1 -4.48978e-011 -2.95702e-027   
     length 0.722097   
     axis 1.88685e-015 90 90   XYZ
    dof rx
    limits (0.0 90.0)
  end
  begin
     id 23
     name lthumb
     direction 0.707107 -6.34931e-011 0.707107   
     length 1.03679   
     axis -90 45 -9.86935e-015   XYZ
    dof rx rz
    limits (-45.0 45.0)
           (-45.0 45.0)
  end
  begin
     id 24 
     name rclavicle
     direction -0.831414 0.553102 -0.0531864   
     length 4.24872  
     axis 0 -0 0   XYZ 
    dof ry rz
    limits (-10.0 20.0)
           (-20.0 0.0)
  end
  begin
     id 25 
     name rhumerus
     direction -0.999916 -0.000939607 0.0129331  
     length 4.74834   
     axis -180 30 90   XYZ
    dof rx ry rz
    limits (-90.0 60.0)
           (-90.0 90.0)
           (-90.0 90.0)
  end
  begin
     id 26 
     name rradius
     direction -1 -4.48956e-011 -1.31752e-027   
     length 2.79907   
     axis -180 30 90   XYZ
    dof rx
    limits (-10.0 170.0)
  end
  begin
     id 27 
     name rwrist
     direction -1 -4.4897e-011 -7.39254e-028   
     length 1.39954   
     axis 2.56395e-016 -90 -90   XYZ
    dof ry
    limits (-180.0 0.0)
  end
  begin
     id 28
     name rhand
     direction -0.999997 -0.00250697 0.000800838   
     length 0.953304   
     axis 9.43423e-016 -90 -90   XYZ
    dof rx rz
    limits (-90.0 90.0)
           (-45.0 45.0)
  end
  begin
     id 29
     name rfingers
     direction -1 -4.48954e-011 -2.95702e-027   
     length 0.763342   
     axis 1.88685e-015 -90 -90   XYZ
    dof rx
    limits (0.0 90.0)
  end
  begin
     id 30
     name rthumb
     direction -0.709701 -0.00217037 0.7045   
     length 1.10115   
     axis -90 -45 9.86935e-015   XYZ
    dof rx rz
    limits (-45.0 45.0)
           (-45.0 45.0)
  end
:hierarchy
  begin
    root lhipjoint rhipjoint lowerback
    lhipjoint lfemur
    lfemur ltibia
    ltibia lfoot
    lfoot ltoes
    rhipjoint rfemur
    rfemur rtibia
    rtibia rfoot
    rfoot rtoes
    lowerback upperback
    upperback thorax
    thorax lowerneck lclavicle rclavicle
    lowerneck upperneck
    upperneck head
    lclavicle lhumerus
    lhumerus lradius
    lradius lwrist
    lwrist lhand lthumb
    lhand lfingers
    rclavicle rhumerus
    rhumerus rradius
    rradius rwrist
    rwrist rhand rthumb
    rhand rfingers
  end

#!OML:ASF G:\ViconDB\ViconDB\414\test\team2\shane.ASF
:FULLY-SPECIFIED
:DEGREES
33
root 0.299327 14.4547 -31.8902 46.0787 6.85196 -26.6468
lowerback 23.8011 5.90522 -12.5855
upperback 13.4826 4.67074 -7.6613
thorax 1.68038 1.83467 -2.38087
lowerneck -23.9974 -8.97237 -15.2262
upperneck 24.44 -5.47543 -3.00953
head 12.6163 -4.14333 0.311202
rclavicle 1.59028e-014 -7.71285e-014
rhumerus 79.8954 9.66444 -51.0162
rradius 24.84
rwrist 44.4623
rhand -34.6341 -14.6489
rfingers 7.12502
rthumb -7.79164 -44.4853
lclavicle 1.59028e-014 -7.71285e-014
lhumerus 46.9274 -3.98861 2.52714
lradius 29.0596
lwrist 21.9242
lhand -51.2659 25.7829
lfingers 7.12502
lthumb -23.8037 54.3282
rfemur -5.90585 -24.8176 34.0443
rtibia 19.682
rfoot -8.60523 26.11
rtoes -15.9363
lfemur -84.955 11.2083 0.744338
ltibia 87.3134
lfoot -46.6974 6.3815
ltoes -5.04509
34
root 0.366604 14.4767 -31.536 47.7503 7.82914 -28.6684
lowerback 24.3204 6.4706 -13.6477
upperback 12.7657 4.94358 -7.26981
thorax 0.506959 1.93795 -1.51264
lowerneck -24.5578 -9.32608 -17.0044
upperneck 25.093 -5.29308 -2.31397
head 13.089 -4.15989 0.837761
rclavicle -2.8625e-014 3.10104e-014
rhumerus 80.8608 8.3682 -49.1862
rradius 25.1194
rwrist 42.9494
rhand -34.661 -15.0717
rfingers 7.12502
rthumb -7.81755 -44.9072
lclavicle -2.8625e-014 3.10104e-014
lhumerus 47.1362 -3.14684 2.43603
lradius 29.5353
lwrist 22.4094
lhand -51.7077 27.2741
lfingers 7.12502
lthumb -24.2273 55.7636
rfemur -4.14632 -26.6085 33.9231
rtibia 17.847
rfoot -10.029 22.5932
rtoes -18.8114
lfemur -84.7467 12.5193 2.95959
ltibia 86.7418
lfoot -47.609 6.60314
ltoes -5.85564
35
root 0.446129 14.504 -31.1919 49.4312 9.27836 -30.5062
lowerback 24.1959 6.35413 -13.2133
upperback 12.2981 4.83039 -7.54556
thorax 0.0748745 1.93726 -2.02409
lowerneck -24.6384 -9.22094 -16.7543
upperneck 25.2506 -5.16981 -2.4278
head 13.1464 -4.10316 0.776888
rclavicle 1.08139e-013 1.66979e-014
rhumerus 81.8529 6.86331 -49.2815
rradius 24.9198
rwrist 42.5401
rhand -34.9411 -15.2231
rfingers 7.12502
rthumb -8.08789 -45.0483
lclavicle 1.08139e-013 1.66979e-014
lhumerus 47.3572 -2.07116 1.93701
lradius 30.3435
lwrist 23.2712
lhand -51.9736 27.6529
lfingers 7.12502
lthumb -24.4822 56.1081
rfemur -2.2875 -28.7841 33.6059
rtibia 16.3513
rfoot -9.96502 18.4895
rtoes -19.4674
lfemur -84.6491 13.4716 5.23437
ltibia 86.0521
lfoot -48.2801 7.04991
ltoes -6.74919
36
root 0.54048 14.5384 -30.8486 50.896 10.6894 -32.2057
lowerback 24.2032 6.34991 -12.8308
upperback 11.9565 4.82901 -7.85531
thorax -0.275672 1.97874 -2.58437
lowerneck -24.9345 -9.17844 -16.4162
upperneck 25.5713 -5.12234 -2.50584
head 13.3155 -4.07432 0.69124
rclavicle -3.81667e-014 1.52667e-013
rhumerus 82.7101 5.11033 -50.2325
rradius 24.4682
rwrist 44.3441
rhand -35.2942 -15.7669
rfingers 7.12502
rthumb -8.42868 -45.5787
lclavicle -3.81667e-014 1.52667e-013
lhumerus 48.1651 -1.47572 1.1369
lradius 30.7638
lwrist 24.2922
lhand -52.2182 28.6624
lfingers 7.12502
lthumb -24.7167 57.0857
rfemur 0.149417 -30.3722 32.476
rtibia 14.9208
rfoot -8.17971 15.7412
rtoes -18.3099
lfemur -84.0606 13.8788 7.76825
ltibia 85.1466
lfoot -48.8037 8.0172
ltoes -7.60654
37
root 0.643658 14.5836 -30.4993 52.1714 12.0916 -33.9587
lowerback 24.3431 6.21066 -12.8602
upperback 11.6067 4.58592 -7.56653
thorax -0.76553 1.86834 -2.20673
lowerneck -25.3214 -9.22836 -17.7613
upperneck 25.7479 -4.53695 -2.45317
head 13.4964 -3.94832 1.00481
rclavicle -2.54444e-014 5.88403e-014
rhumerus 84.364 4.37465 -49.8885
rradius 24.366
rwrist 44.2623
rhand -35.9448 -15.7726
rfingers 7.12502
rthumb -9.05654 -45.5581
lclavicle -2.54444e-014 5.88403e-014
lhumerus 47.7824 -1.21485 0.892016
lradius 31.1744
lwrist 26.2173
lhand -52.202 29.2089
lfingers 7.12502
lthumb -24.7011 57.6344
rfemur 3.02509 -30.8607 30.9028
rtibia 13.5029
rfoot -6.65658 14.0353
rtoes -18.412
lfemur -83.2168 14.1986 10.5256
ltibia 84.156
lfoot -49.2653 8.69004
ltoes -8.4835
38
root 0.76277 14.6359 -30.1611 53.5741 13.4267 -35.6335
lowerback 24.2932 6.21062 -12.7706
upperback 11.2547 4.56162 -7.46504
thorax -1.15123 1.87101 -2.14488
lowerneck -25.6504 -9.11908 -17.7824
upperneck 25.8052 -4.03728 -3.17944
head 13.5466 -3.83297 0.805311
rclavicle 2.8625e-014 -2.38542e-014
rhumerus 85.4649 3.11666 -50.7404
rradius 23.983
rwrist 46.8396
rhand -36.9727 -16.4153
rfingers 7.12502
rthumb -10.0483 -46.1554
lclavicle 2.8625e-014 -2.38542e-014
lhumerus 48.3613 -1.05157 1.00638
lradius 30.7749
lwrist 26.2894
lhand -51.9036 30.0142
lfingers 7.12502
lthumb -24.4151 58.4786
rfemur 4.72957 -29.9689 29.0484
rtibia 14.2649
rfoot -6.07063 12.8038
rtoes -18.8429
lfemur -82.1776 14.0651 13.3518
ltibia 83.0451
lfoot -49.5113 10.7604
ltoes -9.89696
